<svg xmlns="http://www.w3.org/2000/svg" xmlns:xlink="http://www.w3.org/1999/xlink" width="50" zoomAndPan="magnify" viewBox="0 0 37.5 37.499999" height="50" preserveAspectRatio="xMidYMid meet" version="1.0"><defs><clipPath id="86b4171415"><path d="M 0.832031 0 L 36.359375 0 L 36.359375 37 L 0.832031 37 Z M 0.832031 0 " clip-rule="nonzero"/></clipPath></defs><g clip-path="url(#86b4171415)"><path fill="#d9d9d9" d="M 29.789062 3.703125 L 28.070312 3.703125 L 28.070312 1.136719 C 28.070312 0.519531 27.570312 0.0234375 26.957031 0.0234375 C 26.339844 0.0234375 25.84375 0.523438 25.84375 1.136719 L 25.84375 3.707031 L 10.523438 3.707031 L 10.523438 1.136719 C 10.523438 0.519531 10.019531 0.0234375 9.410156 0.0234375 C 8.792969 0.0234375 8.292969 0.523438 8.292969 1.136719 L 8.292969 3.707031 L 7.210938 3.707031 C 3.6875 3.707031 0.832031 6.5625 0.832031 10.085938 L 0.832031 30.605469 C 0.832031 34.128906 3.6875 36.984375 7.210938 36.984375 L 29.789062 36.984375 C 33.3125 36.984375 36.167969 34.128906 36.167969 30.605469 L 36.167969 10.085938 C 36.175781 6.5625 33.3125 3.703125 29.789062 3.703125 Z M 25.839844 4.882812 L 25.839844 7.199219 C 25.839844 7.816406 26.339844 8.3125 26.953125 8.3125 C 27.570312 8.3125 28.066406 7.8125 28.066406 7.199219 L 28.066406 4.96875 C 28.78125 5.382812 29.265625 6.15625 29.265625 7.042969 C 29.265625 8.363281 28.191406 9.4375 26.871094 9.4375 C 25.546875 9.4375 24.476562 8.363281 24.476562 7.042969 C 24.484375 6.089844 25.035156 5.269531 25.839844 4.882812 Z M 8.289062 4.921875 L 8.289062 7.199219 C 8.289062 7.816406 8.792969 8.3125 9.402344 8.3125 C 10.019531 8.3125 10.519531 7.8125 10.519531 7.199219 L 10.519531 4.921875 C 11.277344 5.324219 11.792969 6.121094 11.792969 7.035156 C 11.792969 8.359375 10.722656 9.433594 9.398438 9.433594 C 8.078125 9.433594 7.003906 8.359375 7.003906 7.035156 C 7.015625 6.121094 7.535156 5.324219 8.289062 4.921875 Z M 33.941406 30.601562 C 33.941406 32.890625 32.078125 34.746094 29.792969 34.746094 L 7.210938 34.746094 C 4.921875 34.746094 3.066406 32.886719 3.066406 30.601562 L 3.066406 13.605469 L 33.941406 13.605469 Z M 33.941406 30.601562 " fill-opacity="1" fill-rule="nonzero"/></g><path fill="#d9d9d9" d="M 10.554688 20.039062 L 7.464844 20.039062 C 7.214844 20.039062 7.015625 19.835938 7.015625 19.589844 L 7.015625 16.496094 C 7.015625 16.25 7.214844 16.046875 7.464844 16.046875 L 10.554688 16.046875 C 10.804688 16.046875 11.007812 16.25 11.007812 16.496094 L 11.007812 19.589844 C 11.003906 19.835938 10.804688 20.039062 10.554688 20.039062 Z M 10.554688 20.039062 " fill-opacity="1" fill-rule="nonzero"/><path fill="#d9d9d9" d="M 10.554688 26.378906 L 7.464844 26.378906 C 7.214844 26.378906 7.015625 26.175781 7.015625 25.925781 L 7.015625 22.835938 C 7.015625 22.585938 7.214844 22.382812 7.464844 22.382812 L 10.554688 22.382812 C 10.804688 22.382812 11.007812 22.585938 11.007812 22.835938 L 11.007812 25.925781 C 11.003906 26.179688 10.804688 26.378906 10.554688 26.378906 Z M 10.554688 26.378906 " fill-opacity="1" fill-rule="nonzero"/><path fill="#d9d9d9" d="M 10.554688 32.71875 L 7.464844 32.71875 C 7.214844 32.71875 7.015625 32.515625 7.015625 32.269531 L 7.015625 29.175781 C 7.015625 28.929688 7.214844 28.726562 7.464844 28.726562 L 10.554688 28.726562 C 10.804688 28.726562 11.007812 28.929688 11.007812 29.175781 L 11.007812 32.273438 C 11.003906 32.515625 10.804688 32.71875 10.554688 32.71875 Z M 10.554688 32.71875 " fill-opacity="1" fill-rule="nonzero"/><path fill="#d9d9d9" d="M 16.894531 20.039062 L 13.804688 20.039062 C 13.554688 20.039062 13.351562 19.835938 13.351562 19.589844 L 13.351562 16.496094 C 13.351562 16.25 13.554688 16.046875 13.804688 16.046875 L 16.894531 16.046875 C 17.140625 16.046875 17.34375 16.25 17.34375 16.496094 L 17.34375 19.589844 C 17.34375 19.835938 17.140625 20.039062 16.894531 20.039062 Z M 16.894531 20.039062 " fill-opacity="1" fill-rule="nonzero"/><path fill="#d9d9d9" d="M 16.894531 26.378906 L 13.804688 26.378906 C 13.554688 26.378906 13.351562 26.175781 13.351562 25.925781 L 13.351562 22.835938 C 13.351562 22.585938 13.554688 22.382812 13.804688 22.382812 L 16.894531 22.382812 C 17.140625 22.382812 17.34375 22.585938 17.34375 22.835938 L 17.34375 25.925781 C 17.34375 26.179688 17.140625 26.378906 16.894531 26.378906 Z M 16.894531 26.378906 " fill-opacity="1" fill-rule="nonzero"/><path fill="#d9d9d9" d="M 16.894531 32.71875 L 13.804688 32.71875 C 13.554688 32.71875 13.351562 32.515625 13.351562 32.269531 L 13.351562 29.175781 C 13.351562 28.929688 13.554688 28.726562 13.804688 28.726562 L 16.894531 28.726562 C 17.140625 28.726562 17.34375 28.929688 17.34375 29.175781 L 17.34375 32.273438 C 17.34375 32.515625 17.140625 32.71875 16.894531 32.71875 Z M 16.894531 32.71875 " fill-opacity="1" fill-rule="nonzero"/><path fill="#d9d9d9" d="M 23.234375 20.039062 L 20.144531 20.039062 C 19.898438 20.039062 19.695312 19.835938 19.695312 19.589844 L 19.695312 16.496094 C 19.695312 16.25 19.898438 16.046875 20.144531 16.046875 L 23.234375 16.046875 C 23.484375 16.046875 23.6875 16.25 23.6875 16.496094 L 23.6875 19.589844 C 23.683594 19.835938 23.484375 20.039062 23.234375 20.039062 Z M 23.234375 20.039062 " fill-opacity="1" fill-rule="nonzero"/><path fill="#d9d9d9" d="M 23.234375 26.378906 L 20.144531 26.378906 C 19.898438 26.378906 19.695312 26.175781 19.695312 25.925781 L 19.695312 22.835938 C 19.695312 22.585938 19.898438 22.382812 20.144531 22.382812 L 23.234375 22.382812 C 23.484375 22.382812 23.6875 22.585938 23.6875 22.835938 L 23.6875 25.925781 C 23.683594 26.179688 23.484375 26.378906 23.234375 26.378906 Z M 23.234375 26.378906 " fill-opacity="1" fill-rule="nonzero"/><path fill="#d9d9d9" d="M 23.234375 32.71875 L 20.144531 32.71875 C 19.898438 32.71875 19.695312 32.515625 19.695312 32.269531 L 19.695312 29.175781 C 19.695312 28.929688 19.898438 28.726562 20.144531 28.726562 L 23.234375 28.726562 C 23.484375 28.726562 23.6875 28.929688 23.6875 29.175781 L 23.6875 32.273438 C 23.683594 32.515625 23.484375 32.71875 23.234375 32.71875 Z M 23.234375 32.71875 " fill-opacity="1" fill-rule="nonzero"/><path fill="#d9d9d9" d="M 29.578125 20.039062 L 26.488281 20.039062 C 26.238281 20.039062 26.035156 19.835938 26.035156 19.589844 L 26.035156 16.496094 C 26.035156 16.25 26.238281 16.046875 26.488281 16.046875 L 29.578125 16.046875 C 29.828125 16.046875 30.03125 16.25 30.03125 16.496094 L 30.03125 19.589844 C 30.023438 19.835938 29.824219 20.039062 29.578125 20.039062 Z M 29.578125 20.039062 " fill-opacity="1" fill-rule="nonzero"/><path fill="#d9d9d9" d="M 29.578125 26.378906 L 26.488281 26.378906 C 26.238281 26.378906 26.035156 26.175781 26.035156 25.925781 L 26.035156 22.835938 C 26.035156 22.585938 26.238281 22.382812 26.488281 22.382812 L 29.578125 22.382812 C 29.828125 22.382812 30.03125 22.585938 30.03125 22.835938 L 30.03125 25.925781 C 30.023438 26.179688 29.824219 26.378906 29.578125 26.378906 Z M 29.578125 26.378906 " fill-opacity="1" fill-rule="nonzero"/></svg>