<svg width="97" height="48" viewBox="0 0 97 48" fill="none" xmlns="http://www.w3.org/2000/svg">
<path d="M24.9707 46.0629C24.9707 46.4819 24.866 46.8171 24.6565 47.0685C24.4679 47.32 24.1327 47.4457 23.6508 47.4457C23.3994 47.4457 23.1375 47.4143 22.8651 47.3514C22.5927 47.3095 22.3308 47.2362 22.0794 47.1314C21.5556 46.9847 21.1366 46.8486 20.8223 46.7228C20.5289 46.5971 20.2985 46.4295 20.1309 46.22C19.9842 46.0314 19.8899 45.78 19.848 45.4657C19.8061 45.1514 19.7747 44.7219 19.7537 44.1772C19.5861 39.8821 19.3975 35.6288 19.188 31.4175C18.9995 27.1852 18.6852 22.932 18.2452 18.6578C17.9519 20.1035 17.669 21.5492 17.3966 22.9948C17.1243 24.4405 16.8414 25.9072 16.5481 27.3947C16.2548 28.9452 15.9719 30.527 15.6995 32.1403C15.4481 33.7536 15.0396 35.3145 14.4739 36.8231C14.2434 37.4307 13.9605 37.9126 13.6253 38.2688C13.2901 38.604 12.7768 38.7716 12.0853 38.7716C11.5825 38.7716 11.1739 38.6878 10.8597 38.5202C10.5454 38.3316 10.2416 38.0592 9.94825 37.7031C9.67588 37.4097 9.38255 36.844 9.06828 36.006C8.754 35.1679 8.41877 34.1936 8.06259 33.0832C7.72736 31.9518 7.39213 30.747 7.0569 29.469C6.72167 28.1909 6.40739 26.9652 6.11406 25.7919C5.82074 24.5977 5.55884 23.5082 5.32837 22.5234C5.0979 21.5387 4.91981 20.7949 4.79409 20.2921V24.5662C4.79409 27.3528 4.84647 30.129 4.95123 32.8946C5.05599 35.6603 5.23408 38.4154 5.48551 41.1601C5.54836 41.7677 5.63217 42.3753 5.73693 42.9829C5.86264 43.5905 5.9255 44.1981 5.9255 44.8057C5.9255 45.3505 5.73693 45.7067 5.35979 45.8743C5.00361 46.0419 4.60553 46.1257 4.16554 46.1257C2.97128 46.1257 2.0494 45.8743 1.39989 45.3714C0.771336 44.8476 0.457058 43.9677 0.457058 42.7315C0.457058 40.1963 0.394202 37.6821 0.268491 35.1888C0.14278 32.6956 0.0799245 30.1813 0.0799245 27.6462C0.0799245 27.29 0.0799245 26.6719 0.0799245 25.7919C0.100876 24.9119 0.121828 23.8748 0.14278 22.6806C0.163732 21.4654 0.184684 20.1559 0.205636 18.7521C0.247539 17.3274 0.289443 15.8922 0.331347 14.4465C0.373251 13.0008 0.415154 11.597 0.457058 10.2352C0.498962 8.85234 0.540866 7.61618 0.582769 6.52668C0.624673 5.43719 0.666577 4.53626 0.70848 3.82389C0.771336 3.09058 0.834192 2.65059 0.897047 2.50392C1.00181 2.2106 1.11704 2.02203 1.24275 1.93822C1.38942 1.85442 1.60941 1.81251 1.90274 1.81251C2.69891 1.81251 3.35889 1.9906 3.88269 2.34678C4.42744 2.68201 4.79409 3.25819 4.98266 4.07531C5.27599 4.5153 5.61122 5.32195 5.98835 6.49525C6.36548 7.64761 6.76357 8.999 7.18261 10.5494C7.60164 12.0999 8.02068 13.776 8.43972 15.5779C8.87971 17.3588 9.28827 19.0769 9.6654 20.732C10.0635 22.3872 10.4197 23.9063 10.7339 25.2891C11.0692 26.6719 11.3311 27.73 11.5196 28.4633C12.1272 24.8596 12.7453 21.2768 13.3739 17.715C14.0024 14.1532 14.5996 10.5704 15.1653 6.96667C15.27 6.35907 15.3748 5.76194 15.4795 5.17529C15.6053 4.58863 15.6681 3.99151 15.6681 3.3839C15.6681 3.00677 15.6157 2.66106 15.511 2.34678C15.4062 2.01156 15.3538 1.66585 15.3538 1.30967C15.3538 0.869678 15.49 0.60778 15.7624 0.523972C16.0557 0.419213 16.3805 0.366833 16.7367 0.366833C17.0719 0.366833 17.47 0.419213 17.9309 0.523972C18.3919 0.628732 18.8318 0.785871 19.2509 0.995389C19.6909 1.20491 20.0575 1.46681 20.3509 1.78108C20.6651 2.09536 20.8223 2.46202 20.8223 2.88106C20.8223 3.61437 20.7594 4.38959 20.6337 5.20671C21.388 8.74758 22.0165 12.2989 22.5194 15.8607C23.0222 19.4016 23.3994 22.9739 23.6508 26.5776C23.9022 29.6785 24.1012 32.7584 24.2479 35.8174C24.4155 38.8764 24.6146 41.9353 24.845 44.9943C24.8869 45.1829 24.9184 45.361 24.9393 45.5286C24.9603 45.6962 24.9707 45.8743 24.9707 46.0629ZM41.5646 33.1146C41.5646 34.9374 41.4075 36.7602 41.0932 38.583C40.7999 40.3849 40.1818 42.0925 39.239 43.7058C38.9456 44.1877 38.6104 44.6591 38.2333 45.12C37.8561 45.56 37.4371 45.9581 36.9762 46.3143C36.5362 46.6914 36.0438 46.9847 35.4991 47.1943C34.9753 47.4247 34.42 47.54 33.8334 47.54C32.9115 47.54 32.1049 47.32 31.4134 46.88C30.743 46.4609 30.1563 45.9057 29.6535 45.2143C29.1716 44.5019 28.763 43.7058 28.4278 42.8258C28.1135 41.9249 27.8621 41.0135 27.6735 40.0916C27.5059 39.1487 27.3802 38.2373 27.2964 37.3574C27.2335 36.4774 27.2021 35.7022 27.2021 35.0317C27.2021 34.2774 27.2335 33.4498 27.2964 32.5489C27.3593 31.648 27.464 30.7261 27.6107 29.7833C27.7783 28.8404 27.9878 27.9081 28.2392 26.9862C28.5116 26.0643 28.8573 25.2053 29.2764 24.4091C29.6954 23.592 30.1982 22.8691 30.7849 22.2406C31.3715 21.5911 32.0525 21.0778 32.8277 20.7006V20.732C33.4982 20.3759 34.1686 20.1978 34.8391 20.1978C35.2581 20.1978 35.5829 20.2921 35.8133 20.4806C36.0438 20.6482 36.1486 20.9416 36.1276 21.3606C37.28 21.5701 38.2123 22.1253 38.9247 23.0263C39.637 23.9272 40.1818 24.9748 40.5589 26.1691C40.957 27.3633 41.2189 28.589 41.3446 29.8461C41.4913 31.1032 41.5646 32.1927 41.5646 33.1146ZM34.4619 25.2577C34.1058 25.2577 33.7705 25.1215 33.4562 24.8491C33.0582 25.4567 32.7229 26.1586 32.4506 26.9548C32.1782 27.73 31.9582 28.5366 31.7906 29.3747C31.6439 30.1918 31.5392 31.0194 31.4763 31.8575C31.4134 32.6956 31.382 33.4813 31.382 34.2146C31.382 34.8222 31.4134 35.6079 31.4763 36.5717C31.5392 37.5145 31.6544 38.4678 31.822 39.4316C32.0106 40.3954 32.262 41.2963 32.5763 42.1344C32.9115 42.9725 33.341 43.5905 33.8648 43.9886C34.5143 43.6115 35.0486 43.0144 35.4676 42.1972C35.9076 41.3592 36.2533 40.4478 36.5047 39.463C36.7562 38.4783 36.9238 37.4831 37.0076 36.4774C37.1123 35.4717 37.1647 34.6127 37.1647 33.9003C37.1647 33.3765 37.1333 32.6956 37.0704 31.8575C37.0076 31.0194 36.9028 30.1709 36.7562 29.3118C36.6095 28.4319 36.4 27.6147 36.1276 26.8605C35.8762 26.1062 35.5514 25.5405 35.1533 25.1634C34.9648 25.2262 34.7343 25.2577 34.4619 25.2577ZM55.4557 23.2148C55.4557 26.1062 55.2252 28.9557 54.7643 31.7632C54.3243 34.5708 53.79 37.3678 53.1615 40.1544C53.0777 40.4268 53.0253 40.6573 53.0043 40.8458C52.8786 41.4534 52.7424 42.082 52.5958 42.7315C52.4701 43.3601 52.2605 43.9886 51.9672 44.6172C51.6948 45.141 51.3177 45.6019 50.8358 46C50.3749 46.3771 49.8616 46.5657 49.2959 46.5657C49.0654 46.5657 48.8244 46.5133 48.573 46.4086C48.3216 46.3038 48.0492 46.1676 47.7559 46C47.3369 45.7067 47.0226 45.3086 46.8131 44.8057C46.6035 44.2819 46.4255 43.7477 46.2788 43.2029L46.2159 42.9829V43.0144C45.8598 41.6525 45.5559 40.2906 45.3045 38.9287C45.0741 37.5669 44.8436 36.1945 44.6131 34.8117C44.4874 33.9527 44.3617 33.1041 44.236 32.2661C44.1103 31.407 43.9636 30.5585 43.796 29.7204L43.356 27.8662C43.2512 27.4471 43.136 26.9967 43.0103 26.5148C42.9055 26.0119 42.8008 25.5405 42.696 25.1005C42.5913 24.6605 42.5075 24.2729 42.4446 23.9377C42.3817 23.5815 42.3503 23.3406 42.3503 23.2148C42.3503 22.8168 42.476 22.5549 42.7274 22.4291C42.9998 22.2825 43.3036 22.2092 43.6389 22.2092C44.3093 22.2092 44.896 22.3558 45.3988 22.6491C45.9226 22.9425 46.2997 23.4244 46.5302 24.0948C46.6559 24.451 46.7607 24.8281 46.8445 25.2262C46.9492 25.6243 47.0331 26.0224 47.0959 26.4205C47.4521 27.8033 47.7873 29.2699 48.1016 30.8204C48.4368 32.3499 48.7197 33.827 48.9502 35.2517L49.233 36.8545C49.254 36.9593 49.2644 37.0431 49.2644 37.1059C49.2644 37.1688 49.2644 37.2212 49.2644 37.2631C49.2854 37.305 49.2959 37.3574 49.2959 37.4202C49.3168 37.4831 49.3378 37.5773 49.3587 37.7031C49.8197 35.4822 50.2073 33.2613 50.5215 31.0404C50.8358 28.7985 50.993 26.5462 50.993 24.2834C50.993 23.8224 50.9615 23.372 50.8987 22.932C50.8568 22.492 50.8044 22.0311 50.7415 21.5492C50.6787 21.1092 50.6158 20.6587 50.553 20.1978C50.5111 19.7159 50.4901 19.234 50.4901 18.7521C50.4901 18.3121 50.6263 18.0083 50.8987 17.8407C51.171 17.6731 51.5063 17.5893 51.9044 17.5893C52.3863 17.5893 52.8262 17.6207 53.2243 17.6836C53.6224 17.7464 53.9681 17.8721 54.2615 18.0607C54.5548 18.2283 54.7957 18.4797 54.9843 18.815C55.1729 19.1292 55.2986 19.5483 55.3614 20.0721C55.4033 20.554 55.4243 21.0778 55.4243 21.6435C55.4452 22.1882 55.4557 22.712 55.4557 23.2148ZM61.867 19.5692C61.867 19.9254 61.7832 20.1873 61.6156 20.3549C61.4689 20.5016 61.186 20.5749 60.767 20.5749C60.5784 20.5749 60.2851 20.554 59.887 20.5121C59.4889 20.4492 59.0804 20.3654 58.6613 20.2606C58.2633 20.1559 57.9071 20.0092 57.5928 19.8206C57.2995 19.6321 57.1528 19.4016 57.1528 19.1292C57.1528 19.0454 57.1842 18.815 57.2471 18.4378C57.3099 18.0397 57.3833 17.6207 57.4671 17.1807C57.5718 16.7407 57.6557 16.3426 57.7185 15.9865C57.8023 15.6303 57.8652 15.4312 57.9071 15.3893V15.4207C58.0118 15.2531 58.1375 15.1484 58.2842 15.1065C58.4309 15.0646 58.5775 15.0436 58.7242 15.0436C58.9128 15.0436 59.1537 15.075 59.447 15.1379C59.7613 15.1798 60.0651 15.2531 60.3584 15.3579C60.6727 15.4417 60.9556 15.5569 61.207 15.7036C61.4584 15.8503 61.6156 16.0074 61.6784 16.175C61.7413 16.3426 61.7727 16.5731 61.7727 16.8664C61.7936 17.1388 61.7936 17.3902 61.7727 17.6207C61.7727 17.7045 61.7622 17.8093 61.7413 17.935C61.7413 18.0397 61.7413 18.1235 61.7413 18.1864C61.7413 18.2912 61.7413 18.3959 61.7413 18.5007C61.7622 18.6054 61.7832 18.7102 61.8041 18.815C61.8251 18.9197 61.8356 19.0349 61.8356 19.1607C61.8565 19.2864 61.867 19.4226 61.867 19.5692ZM63.0298 44.6172C63.0298 45.0991 62.9146 45.4448 62.6841 45.6543C62.4746 45.8429 62.1289 45.9371 61.647 45.9371C61.3956 45.9371 61.1127 45.9057 60.7984 45.8429C60.5051 45.78 60.2118 45.6962 59.9185 45.5914C59.6251 45.4657 59.3528 45.3191 59.1013 45.1514C58.8499 44.9838 58.6613 44.7953 58.5356 44.5857C58.4518 44.46 58.3785 44.0724 58.3156 43.4229C58.2528 42.7734 58.2004 41.9668 58.1585 41.003C58.1375 40.0392 58.1061 38.9602 58.0642 37.7659C58.0433 36.5717 58.0223 35.3669 58.0014 34.1517C58.0014 32.9365 58.0014 31.7527 58.0014 30.6004C58.0014 29.448 58.0014 28.4423 58.0014 27.5833V25.1634C58.0014 24.9538 58.0014 24.7443 58.0014 24.5348C58.0223 24.3253 58.0642 24.1472 58.1271 24.0005C58.2109 23.8329 58.3261 23.6967 58.4728 23.592C58.6404 23.4872 58.8709 23.4348 59.1642 23.4348C60.0861 23.4348 60.7565 23.6967 61.1756 24.2205C61.6156 24.7234 61.8879 25.4043 61.9927 26.2633C62.0974 27.5414 62.1708 28.8195 62.2127 30.0975C62.2755 31.3546 62.3279 32.6327 62.3698 33.9317C62.4117 35.105 62.4432 36.2679 62.4641 37.4202C62.506 38.5516 62.5793 39.683 62.6841 40.8144C62.7051 41.0449 62.726 41.2649 62.747 41.4744C62.7679 41.6839 62.7993 41.8934 62.8412 42.103C62.8831 42.522 62.925 42.941 62.967 43.3601C63.0089 43.7582 63.0298 44.1772 63.0298 44.6172ZM78.0209 40.2487C78.0209 40.8773 77.8428 41.5268 77.4866 42.1972C77.1514 42.8677 76.7114 43.4858 76.1666 44.0515C75.6219 44.5962 74.9933 45.0467 74.281 45.4029C73.5895 45.7591 72.8981 45.9371 72.2067 45.9371C71.222 45.9371 70.3734 45.7486 69.6611 45.3714C68.9487 44.9734 68.3306 44.4496 67.8068 43.8001C67.283 43.1296 66.8535 42.3753 66.5183 41.5373C66.204 40.6992 65.9526 39.8402 65.764 38.9602C65.5755 38.0592 65.4393 37.1688 65.3555 36.2888C65.2926 35.3879 65.2612 34.5708 65.2612 33.8374C65.2612 33.2089 65.2926 32.4651 65.3555 31.6061C65.4393 30.747 65.565 29.8566 65.7326 28.9347C65.9212 28.0128 66.1726 27.1014 66.4869 26.2005C66.8011 25.2996 67.1887 24.4929 67.6497 23.7805C68.1316 23.0682 68.6973 22.492 69.3468 22.052C70.0173 21.612 70.782 21.392 71.641 21.392C72.3115 21.392 72.9086 21.5282 73.4324 21.8006C73.9772 22.073 74.4276 22.4396 74.7838 22.9006C75.1609 23.3406 75.4438 23.8539 75.6324 24.4405C75.8419 25.0272 75.9466 25.6348 75.9466 26.2633C75.9466 27.0805 75.7581 27.9709 75.3809 28.9347C75.0038 29.8985 74.5114 30.8308 73.9038 31.7318C73.3172 32.6327 72.6467 33.4498 71.8924 34.1831C71.1591 34.8955 70.4258 35.4403 69.6925 35.8174C69.7344 36.1945 69.8182 36.7498 69.9439 37.4831C70.0696 38.1954 70.2372 38.9078 70.4468 39.6202C70.6772 40.3325 70.9391 40.9506 71.2325 41.4744C71.5467 41.9982 71.9134 42.2601 72.3324 42.2601C72.542 42.2601 72.72 42.1972 72.8667 42.0715C73.0343 41.9458 73.181 41.7782 73.3067 41.5687C73.4324 41.3592 73.5372 41.1287 73.621 40.8773C73.7257 40.6258 73.82 40.3849 73.9038 40.1544L74.0924 39.7144C74.1343 39.6516 74.1552 39.6097 74.1552 39.5887C74.1762 39.5678 74.1971 39.5363 74.2181 39.4944C74.3648 39.2221 74.501 38.9706 74.6267 38.7402C74.7733 38.5097 74.9724 38.3107 75.2238 38.143H75.1924C75.2762 38.0592 75.36 38.0173 75.4438 38.0173C75.5485 37.9964 75.6428 37.9859 75.7266 37.9859C75.9571 37.9859 76.2085 38.0592 76.4809 38.2059C76.7533 38.3526 77.0047 38.5411 77.2352 38.7716C77.4656 38.9811 77.6542 39.2221 77.8009 39.4944C77.9475 39.7459 78.0209 39.9973 78.0209 40.2487ZM71.7982 26.3891C71.7982 26.1795 71.7877 25.9595 71.7667 25.7291C71.7458 25.4986 71.6934 25.2996 71.6096 25.1319C71.3163 25.4881 71.0544 25.9176 70.8239 26.4205C70.6144 26.9024 70.4363 27.4157 70.2896 27.9604C70.143 28.4842 70.0173 29.0185 69.9125 29.5633C69.8287 30.108 69.7658 30.6109 69.7239 31.0718C70.2687 30.4223 70.7506 29.689 71.1696 28.8718C71.5886 28.0338 71.7982 27.2062 71.7982 26.3891ZM90.1206 22.9634C90.1206 23.2148 90.0263 23.4244 89.8377 23.592C89.6701 23.7596 89.4606 23.9063 89.2092 24.032C88.9577 24.1367 88.6958 24.2101 88.4235 24.252C88.1721 24.2939 87.9625 24.3148 87.7949 24.3148C87.5435 24.3148 87.3025 24.2939 87.0721 24.252C86.8416 24.1891 86.6111 24.1263 86.3807 24.0634C86.1502 24.0005 85.9302 23.9482 85.7207 23.9063C85.5112 23.8434 85.2912 23.812 85.0607 23.812C84.7464 23.812 84.4321 23.8644 84.1179 23.9691C83.8036 24.0739 83.5207 24.2205 83.2693 24.4091C83.0179 24.5977 82.8084 24.8281 82.6408 25.1005C82.4941 25.3729 82.4208 25.6767 82.4208 26.0119C82.4208 26.5148 82.5255 27.0176 82.735 27.5205C82.9446 28.0023 83.2169 28.4947 83.5522 28.9976C83.9083 29.5004 84.3064 30.0137 84.7464 30.5375C85.2074 31.0404 85.6893 31.5537 86.1921 32.0775C86.7997 32.7479 87.4073 33.4289 88.0149 34.1203C88.6435 34.8117 89.1987 35.5345 89.6806 36.2888C90.1834 37.0431 90.592 37.8392 90.9063 38.6773C91.2205 39.5154 91.3777 40.3954 91.3777 41.3173C91.3777 42.1134 91.2415 42.8258 90.9691 43.4543C90.7177 44.0829 90.351 44.6172 89.8692 45.0572C89.4082 45.4972 88.8425 45.8324 88.1721 46.0629C87.5225 46.3143 86.8102 46.44 86.035 46.44C85.8254 46.44 85.5007 46.3981 85.0607 46.3143C84.6417 46.2305 84.1598 46.1152 83.615 45.9686C83.0703 45.801 82.5046 45.6229 81.9179 45.4343C81.3522 45.2457 80.8284 45.0467 80.3465 44.8372C79.8856 44.6067 79.498 44.3867 79.1837 44.1772C78.8904 43.9467 78.7437 43.7372 78.7437 43.5486C78.7437 43.2972 78.8589 43.0458 79.0894 42.7944C79.3199 42.522 79.5923 42.281 79.9065 42.0715C80.2208 41.8411 80.5456 41.6525 80.8808 41.5058C81.237 41.3592 81.5303 41.2858 81.7608 41.2858C82.0751 41.2858 82.3998 41.3592 82.735 41.5058C83.0912 41.6525 83.4474 41.8201 83.8036 42.0087C84.2017 42.2182 84.5998 42.4068 84.9978 42.5744C85.4169 42.742 85.8464 42.8258 86.2864 42.8258C86.6216 42.8258 86.8102 42.7106 86.8521 42.4801C86.9149 42.2496 86.9464 41.9877 86.9464 41.6944C86.9464 40.9611 86.8207 40.2697 86.5692 39.6202C86.3178 38.9497 85.9931 38.3002 85.595 37.6716C85.1969 37.0431 84.7359 36.4355 84.2121 35.8488C83.6884 35.2412 83.1646 34.6441 82.6408 34.0574C82.096 33.4708 81.5617 32.8841 81.0379 32.2975C80.5351 31.7108 80.0846 31.1137 79.6865 30.5061C79.2885 29.8775 78.9637 29.2385 78.7123 28.589C78.4818 27.9395 78.3666 27.2481 78.3666 26.5148C78.3666 25.6138 78.5656 24.8072 78.9637 24.0948C79.3618 23.3615 79.8751 22.733 80.5037 22.2092C81.1532 21.6854 81.876 21.2873 82.6722 21.0149C83.4893 20.7216 84.3064 20.5749 85.1236 20.5749C85.3959 20.5749 85.815 20.6378 86.3807 20.7635C86.9464 20.8682 87.5016 21.0254 88.0463 21.2349C88.5911 21.4444 89.073 21.6958 89.492 21.9892C89.9111 22.2825 90.1206 22.6072 90.1206 22.9634Z" fill="white"/>
<path d="M92.5091 42.6058C92.5091 42.3963 92.5824 42.2391 92.7291 42.1344C92.8757 42.0087 93.0538 41.9249 93.2634 41.883C93.4938 41.8201 93.7138 41.7887 93.9233 41.7887C94.1538 41.7887 94.3528 41.7887 94.5205 41.7887C94.73 41.7887 94.9709 41.7992 95.2433 41.8201C95.5366 41.8201 95.809 41.862 96.0604 41.9458C96.3118 42.0087 96.5214 42.1239 96.689 42.2915C96.8775 42.4382 96.9718 42.6477 96.9718 42.9201C96.9718 43.0248 96.9614 43.2553 96.9404 43.6115C96.9404 43.9467 96.9299 44.3134 96.909 44.7115C96.909 45.1095 96.8985 45.4762 96.8775 45.8114C96.8775 46.1257 96.8671 46.2933 96.8461 46.3143C96.6785 46.5447 96.4585 46.6705 96.1861 46.6914C95.9347 46.7333 95.6938 46.7543 95.4633 46.7543C94.8138 46.7543 94.3319 46.7228 94.0176 46.66C93.7033 46.5971 93.4729 46.4714 93.3262 46.2829C93.1795 46.0943 93.0853 45.8324 93.0434 45.4972C93.0224 45.1619 92.97 44.7219 92.8862 44.1772C92.8234 43.9258 92.7396 43.6743 92.6348 43.4229C92.551 43.1715 92.5091 42.8991 92.5091 42.6058Z" fill="#FF004D"/>
</svg>
