<svg xmlns="http://www.w3.org/2000/svg" xmlns:xlink="http://www.w3.org/1999/xlink" width="50" zoomAndPan="magnify" viewBox="0 0 37.5 37.499999" height="50" preserveAspectRatio="xMidYMid meet" version="1.0"><defs><clipPath id="c11ab18458"><path d="M 0 0.605469 L 37 0.605469 L 37 36 L 0 36 Z M 0 0.605469 " clip-rule="nonzero"/></clipPath></defs><g clip-path="url(#c11ab18458)"><path fill="#ffdc5c" d="M 11.316406 10.96875 C 10.6875 11.867188 0.355469 14.417969 0.179688 16.136719 C 0.0117188 17.847656 7.644531 23.125 8.617188 24.25 C 9.695312 25.507812 8.789062 34.523438 10.511719 35.328125 C 12.242188 36.132812 19.601562 30.167969 21.332031 30.050781 C 22.996094 29.9375 30.941406 34.167969 31.894531 32.640625 C 33.34375 30.332031 30.554688 22.921875 30.757812 21.613281 C 31.003906 20.019531 36.980469 14.175781 36.320312 12.078125 C 35.566406 9.691406 25.894531 10.445312 24.691406 9.8125 C 23.667969 9.273438 18.304688 0.8125 16.984375 0.734375 C 14.691406 0.605469 12.230469 9.675781 11.316406 10.96875 Z M 11.316406 10.96875 " fill-opacity="1" fill-rule="nonzero"/></g><path fill="#ffdc5c" d="M 30.773438 21.613281 C 31.019531 20.019531 36.992188 14.175781 36.335938 12.078125 C 35.582031 9.691406 25.90625 10.445312 24.707031 9.8125 C 24.4375 9.675781 23.886719 9.015625 23.199219 8.109375 C 21.539062 16.828125 16.398438 24.351562 9.355469 30.433594 C 9.484375 32.769531 9.710938 34.953125 10.519531 35.328125 C 12.25 36.132812 19.609375 30.167969 21.339844 30.050781 C 23.003906 29.9375 30.945312 34.167969 31.902344 32.640625 C 33.351562 30.332031 30.570312 22.921875 30.773438 21.613281 Z M 30.773438 21.613281 " fill-opacity="1" fill-rule="nonzero"/><path fill="#fff7d8" d="M 5.503906 17.429688 C 4.34375 17.761719 3.859375 15.980469 5.007812 15.648438 C 5.539062 15.496094 6.066406 15.347656 6.59375 15.195312 C 7.753906 14.863281 8.238281 16.648438 7.085938 16.976562 C 6.558594 17.128906 6.03125 17.28125 5.503906 17.429688 Z M 10.671875 15.894531 C 11.816406 15.355469 12.96875 14.816406 14.113281 14.269531 C 15.199219 13.757812 14.25 12.164062 13.171875 12.671875 C 12.027344 13.210938 10.875 13.75 9.730469 14.296875 C 8.652344 14.808594 9.59375 16.402344 10.671875 15.894531 Z M 15.855469 10.429688 C 16.074219 9.394531 16.335938 8.367188 16.640625 7.347656 C 16.980469 6.203125 15.183594 5.714844 14.84375 6.859375 C 14.539062 7.871094 14.277344 8.898438 14.0625 9.941406 C 13.808594 11.097656 15.609375 11.59375 15.855469 10.429688 Z M 15.855469 10.429688 " fill-opacity="1" fill-rule="nonzero"/></svg>