<svg xmlns="http://www.w3.org/2000/svg" xmlns:xlink="http://www.w3.org/1999/xlink" width="50" zoomAndPan="magnify" viewBox="0 0 37.5 37.499999" height="50" preserveAspectRatio="xMidYMid meet" version="1.0"><defs><clipPath id="a83ed1918f"><path d="M 3.261719 0 L 33.605469 0 L 33.605469 37 L 3.261719 37 Z M 3.261719 0 " clip-rule="nonzero"/></clipPath></defs><g clip-path="url(#a83ed1918f)"><path fill="#ffffff" d="M 17.953125 36.941406 C 15.410156 36.941406 13.039062 36.328125 10.902344 35.117188 C 8.671875 33.855469 6.871094 32.042969 5.550781 29.726562 C 4.5 27.890625 4.058594 26.25 3.894531 25.632812 C 3.390625 23.761719 3.261719 21.886719 3.5 19.902344 C 3.707031 18.160156 4.164062 16.546875 4.609375 14.988281 C 5.121094 13.1875 5.835938 11.378906 6.574219 10.015625 C 7.496094 8.316406 8.308594 7.550781 9.054688 7.679688 C 9.769531 7.804688 10.101562 8.6875 10.421875 9.539062 C 10.527344 9.820312 10.628906 10.089844 10.734375 10.296875 C 10.8125 10.457031 10.871094 10.535156 10.90625 10.570312 C 10.976562 10.480469 11.082031 10.277344 11.175781 10.09375 C 11.238281 9.972656 11.304688 9.839844 11.386719 9.691406 C 11.636719 9.230469 12.265625 8.417969 13.644531 6.632812 C 14.027344 6.136719 14.828125 5.101562 15.804688 4.003906 C 16.589844 3.117188 17.484375 2.113281 18.285156 1.363281 C 19.382812 0.332031 20.066406 0.0117188 20.5625 0.285156 C 20.800781 0.414062 20.925781 0.652344 20.941406 0.992188 C 20.953125 1.214844 20.917969 1.484375 20.878906 1.828125 C 20.8125 2.351562 20.722656 3.070312 20.753906 3.984375 C 20.832031 6.164062 21.515625 7.746094 21.921875 8.695312 C 22.382812 9.761719 23.046875 10.941406 23.65625 11.777344 C 24.433594 12.839844 24.917969 13.082031 25.089844 13.066406 C 25.171875 12.964844 25.363281 12.578125 25.800781 11.183594 C 26.042969 10.414062 26.214844 9.808594 26.355469 9.320312 C 26.5 8.8125 26.601562 8.445312 26.703125 8.191406 C 26.769531 8.023438 26.925781 7.636719 27.316406 7.59375 C 28.015625 7.515625 28.40625 8.574219 28.949219 10.039062 C 28.992188 10.152344 29.03125 10.261719 29.074219 10.371094 C 29.9375 12.691406 30.492188 13.675781 30.980469 14.542969 C 31.421875 15.324219 31.804688 16 32.253906 17.429688 C 32.988281 19.75 33.746094 22.152344 33.21875 25.125 C 32.476562 29.3125 29.660156 31.917969 28.734375 32.773438 C 27.566406 33.855469 25.597656 35.324219 22.875 36.179688 C 21.472656 36.625 20.035156 36.875 18.566406 36.929688 C 18.359375 36.9375 18.15625 36.941406 17.953125 36.941406 Z M 8.890625 8.441406 C 8.660156 8.441406 8.089844 8.84375 7.253906 10.386719 C 6.542969 11.699219 5.847656 13.453125 5.351562 15.199219 C 4.476562 18.277344 3.574219 21.460938 4.640625 25.429688 C 6.015625 30.554688 9.011719 33.160156 11.28125 34.445312 C 15.789062 36.996094 20.335938 36.164062 22.644531 35.441406 C 25.230469 34.628906 27.097656 33.234375 28.210938 32.203125 C 29.089844 31.390625 31.761719 28.921875 32.457031 24.988281 C 32.949219 22.207031 32.253906 20 31.515625 17.660156 C 31.089844 16.308594 30.746094 15.699219 30.308594 14.921875 C 29.832031 14.074219 29.234375 13.019531 28.347656 10.644531 C 28.308594 10.53125 28.265625 10.417969 28.222656 10.308594 C 28.050781 9.839844 27.871094 9.351562 27.699219 8.972656 C 27.578125 8.710938 27.488281 8.558594 27.425781 8.46875 C 27.335938 8.6875 27.21875 9.101562 27.097656 9.53125 C 26.960938 10.023438 26.785156 10.636719 26.539062 11.414062 C 26.25 12.332031 26.039062 12.914062 25.875 13.25 C 25.710938 13.582031 25.554688 13.738281 25.324219 13.804688 C 24.6875 13.988281 23.9375 13.472656 23.03125 12.230469 C 22.382812 11.34375 21.703125 10.132812 21.210938 9 C 20.808594 8.070312 20.0625 6.335938 19.980469 4.011719 C 19.949219 3.039062 20.042969 2.285156 20.109375 1.734375 C 20.144531 1.453125 20.1875 1.109375 20.167969 0.96875 C 20.054688 0.984375 19.667969 1.109375 18.710938 2.023438 C 17.960938 2.742188 17.121094 3.6875 16.382812 4.519531 C 15.425781 5.59375 14.632812 6.617188 14.253906 7.109375 C 12.984375 8.75 12.289062 9.652344 12.066406 10.058594 C 11.992188 10.199219 11.921875 10.332031 11.863281 10.445312 C 11.742188 10.683594 11.644531 10.871094 11.535156 11.019531 C 11.476562 11.101562 11.292969 11.347656 10.957031 11.367188 C 10.632812 11.390625 10.351562 11.191406 10.117188 10.789062 C 9.964844 10.515625 9.835938 10.171875 9.699219 9.808594 C 9.566406 9.457031 9.425781 9.089844 9.269531 8.816406 C 9.097656 8.515625 8.976562 8.453125 8.921875 8.441406 C 8.910156 8.441406 8.902344 8.441406 8.890625 8.441406 Z M 20.203125 0.96875 Z M 20.203125 0.96875 " fill-opacity="1" fill-rule="nonzero"/></g><path fill="#ffffff" d="M 18.117188 35.820312 C 16.507812 35.820312 15.003906 35.429688 13.648438 34.664062 C 12.238281 33.863281 11.097656 32.714844 10.257812 31.25 C 9.796875 30.433594 9.449219 29.570312 9.210938 28.660156 C 8.894531 27.476562 8.8125 26.289062 8.960938 25.035156 C 9.09375 23.9375 9.378906 22.925781 9.660156 21.949219 C 9.980469 20.820312 10.429688 19.679688 10.894531 18.820312 C 11.503906 17.699219 12.058594 17.199219 12.59375 17.292969 C 13.125 17.382812 13.355469 18 13.558594 18.542969 C 13.601562 18.65625 13.664062 18.820312 13.722656 18.949219 C 13.738281 18.921875 13.75 18.898438 13.761719 18.871094 C 13.800781 18.796875 13.84375 18.710938 13.894531 18.617188 C 14.058594 18.320312 14.453125 17.808594 15.316406 16.691406 C 15.554688 16.382812 16.058594 15.734375 16.667969 15.046875 C 17.160156 14.492188 17.71875 13.863281 18.226562 13.390625 C 18.773438 12.875 19.34375 12.4375 19.816406 12.695312 C 19.949219 12.769531 20.109375 12.929688 20.125 13.257812 C 20.132812 13.410156 20.113281 13.582031 20.085938 13.804688 C 20.042969 14.125 19.988281 14.566406 20.007812 15.125 C 20.054688 16.457031 20.476562 17.429688 20.726562 18.007812 C 20.992188 18.625 21.363281 19.296875 21.71875 19.804688 C 22.109375 20.355469 22.371094 20.566406 22.492188 20.625 C 22.550781 20.503906 22.664062 20.226562 22.871094 19.574219 C 23.019531 19.097656 23.128906 18.71875 23.214844 18.417969 C 23.304688 18.09375 23.371094 17.863281 23.4375 17.699219 C 23.480469 17.59375 23.609375 17.273438 23.9375 17.234375 C 24.371094 17.1875 24.605469 17.660156 24.707031 17.863281 C 24.84375 18.140625 24.976562 18.503906 25.109375 18.855469 C 25.132812 18.921875 25.160156 18.992188 25.183594 19.0625 C 25.722656 20.496094 26.0625 21.105469 26.367188 21.640625 C 26.644531 22.136719 26.886719 22.5625 27.171875 23.46875 C 27.632812 24.933594 28.109375 26.445312 27.777344 28.332031 C 27.304688 30.992188 25.523438 32.640625 24.9375 33.183594 C 24.195312 33.867188 22.953125 34.796875 21.226562 35.335938 C 20.339844 35.617188 19.433594 35.777344 18.503906 35.8125 C 18.375 35.816406 18.246094 35.820312 18.117188 35.820312 Z M 12.460938 18.058594 C 12.398438 18.078125 12.074219 18.238281 11.519531 19.296875 C 11.101562 20.09375 10.695312 21.136719 10.402344 22.160156 C 9.863281 24.0625 9.304688 26.027344 9.960938 28.460938 C 10.804688 31.605469 12.640625 33.203125 14.03125 33.992188 C 16.792969 35.554688 19.582031 35.042969 20.996094 34.597656 C 22.582031 34.101562 23.730469 33.246094 24.410156 32.613281 C 24.949219 32.117188 26.589844 30.601562 27.015625 28.199219 C 27.316406 26.5 26.886719 25.140625 26.433594 23.699219 C 26.171875 22.871094 25.960938 22.496094 25.691406 22.019531 C 25.390625 21.488281 25.019531 20.824219 24.460938 19.332031 C 24.433594 19.261719 24.410156 19.191406 24.382812 19.121094 C 24.300781 18.894531 24.171875 18.550781 24.054688 18.292969 C 24.023438 18.394531 23.992188 18.507812 23.957031 18.628906 C 23.871094 18.933594 23.761719 19.316406 23.609375 19.804688 C 23.425781 20.386719 23.292969 20.753906 23.1875 20.96875 C 23.097656 21.148438 22.984375 21.328125 22.753906 21.390625 C 22.6875 21.410156 22.621094 21.421875 22.554688 21.421875 C 22.140625 21.421875 21.683594 21.070312 21.164062 20.359375 C 20.753906 19.792969 20.324219 19.03125 20.015625 18.316406 C 19.761719 17.726562 19.289062 16.628906 19.234375 15.152344 C 19.214844 14.535156 19.273438 14.058594 19.316406 13.710938 C 19.324219 13.632812 19.335938 13.550781 19.34375 13.476562 C 19.207031 13.5625 18.976562 13.734375 18.613281 14.089844 C 18.167969 14.523438 17.679688 15.074219 17.246094 15.558594 C 16.652344 16.226562 16.164062 16.863281 15.925781 17.167969 C 15.140625 18.183594 14.707031 18.742188 14.574219 18.988281 C 14.527344 19.074219 14.488281 19.152344 14.453125 19.226562 C 14.285156 19.550781 14.125 19.855469 13.765625 19.878906 C 13.503906 19.894531 13.28125 19.75 13.105469 19.441406 C 13.003906 19.265625 12.921875 19.046875 12.835938 18.8125 C 12.761719 18.621094 12.6875 18.421875 12.605469 18.265625 C 12.53125 18.125 12.480469 18.074219 12.460938 18.058594 Z M 12.453125 18.050781 Z M 12.453125 18.050781 " fill-opacity="1" fill-rule="nonzero"/><path fill="#ffffff" d="M 16.21875 24.363281 C 16.441406 24.359375 16.648438 24.414062 16.84375 24.523438 C 17.027344 24.632812 17.167969 24.796875 17.265625 25.019531 C 17.363281 25.242188 17.414062 25.511719 17.414062 25.820312 C 17.417969 26.136719 17.363281 26.441406 17.246094 26.738281 C 17.136719 27.011719 16.980469 27.210938 16.773438 27.335938 C 16.558594 27.464844 16.324219 27.527344 16.074219 27.523438 C 15.898438 27.523438 15.730469 27.492188 15.566406 27.429688 C 15.40625 27.363281 15.273438 27.265625 15.167969 27.132812 C 15.054688 26.988281 14.976562 26.832031 14.9375 26.652344 C 14.890625 26.464844 14.867188 26.269531 14.867188 26.074219 C 14.867188 25.765625 14.921875 25.46875 15.03125 25.183594 C 15.140625 24.890625 15.300781 24.679688 15.515625 24.554688 C 15.730469 24.425781 15.964844 24.359375 16.21875 24.363281 Z M 16.183594 25.046875 C 16.097656 25.046875 16.019531 25.09375 15.949219 25.179688 C 15.878906 25.269531 15.824219 25.398438 15.789062 25.574219 C 15.75 25.746094 15.734375 25.921875 15.734375 26.097656 C 15.734375 26.351562 15.765625 26.539062 15.832031 26.664062 C 15.894531 26.785156 15.984375 26.847656 16.09375 26.847656 C 16.230469 26.847656 16.34375 26.742188 16.425781 26.53125 C 16.507812 26.324219 16.546875 26.074219 16.546875 25.792969 C 16.546875 25.550781 16.511719 25.367188 16.441406 25.238281 C 16.371094 25.113281 16.285156 25.046875 16.183594 25.046875 Z M 16.339844 29.347656 L 17.324219 27.464844 L 18.863281 24.421875 C 19.007812 24.425781 19.136719 24.425781 19.25 24.425781 C 19.34375 24.425781 19.472656 24.425781 19.625 24.421875 L 18.867188 25.878906 L 17.570312 28.429688 L 17.132812 29.347656 C 16.992188 29.339844 16.871094 29.339844 16.765625 29.339844 C 16.703125 29.339844 16.558594 29.339844 16.339844 29.347656 Z M 19.898438 26.242188 C 20.113281 26.238281 20.316406 26.285156 20.507812 26.382812 C 20.6875 26.476562 20.828125 26.632812 20.9375 26.851562 C 21.046875 27.070312 21.101562 27.34375 21.101562 27.679688 C 21.101562 27.90625 21.074219 28.132812 21.023438 28.355469 C 20.972656 28.566406 20.886719 28.761719 20.761719 28.9375 C 20.652344 29.101562 20.503906 29.222656 20.324219 29.296875 C 20.140625 29.371094 19.953125 29.40625 19.757812 29.402344 C 19.523438 29.402344 19.316406 29.355469 19.136719 29.257812 C 18.960938 29.160156 18.820312 29.003906 18.714844 28.789062 C 18.609375 28.574219 18.554688 28.292969 18.554688 27.941406 C 18.554688 27.632812 18.613281 27.332031 18.722656 27.046875 C 18.835938 26.757812 18.996094 26.550781 19.203125 26.429688 C 19.417969 26.300781 19.648438 26.238281 19.898438 26.242188 Z M 19.871094 26.933594 C 19.777344 26.933594 19.699219 26.976562 19.632812 27.070312 C 19.566406 27.160156 19.515625 27.289062 19.480469 27.453125 C 19.445312 27.625 19.429688 27.796875 19.429688 27.972656 C 19.425781 28.085938 19.433594 28.195312 19.449219 28.304688 C 19.460938 28.382812 19.484375 28.453125 19.515625 28.523438 C 19.539062 28.582031 19.578125 28.632812 19.628906 28.671875 C 19.714844 28.742188 19.8125 28.75 19.910156 28.699219 C 19.957031 28.671875 19.996094 28.632812 20.027344 28.585938 C 20.078125 28.511719 20.113281 28.433594 20.136719 28.347656 C 20.171875 28.242188 20.195312 28.136719 20.210938 28.027344 C 20.226562 27.914062 20.234375 27.792969 20.234375 27.675781 C 20.234375 27.441406 20.203125 27.257812 20.140625 27.128906 C 20.078125 26.996094 19.988281 26.933594 19.871094 26.933594 Z M 19.871094 26.933594 " fill-opacity="1" fill-rule="nonzero"/><path fill="#ffffff" d="M 17.984375 33.367188 C 17.511719 33.367188 17.226562 32.917969 16.976562 32.519531 C 16.882812 32.375 16.714844 32.105469 16.625 32.054688 C 16.515625 32.054688 16.214844 32.214844 16.066406 32.289062 C 15.660156 32.503906 15.199219 32.746094 14.800781 32.519531 C 14.398438 32.289062 14.375 31.761719 14.355469 31.296875 C 14.347656 31.132812 14.332031 30.792969 14.28125 30.707031 C 14.191406 30.652344 13.855469 30.640625 13.6875 30.632812 C 13.226562 30.617188 12.699219 30.597656 12.464844 30.195312 C 12.234375 29.800781 12.476562 29.335938 12.6875 28.929688 C 12.765625 28.777344 12.925781 28.472656 12.921875 28.367188 C 12.871094 28.28125 12.601562 28.113281 12.457031 28.019531 C 12.058594 27.769531 11.609375 27.484375 11.609375 27.011719 C 11.609375 26.542969 12.058594 26.257812 12.457031 26.003906 C 12.601562 25.914062 12.871094 25.742188 12.921875 25.65625 C 12.925781 25.554688 12.765625 25.246094 12.6875 25.097656 C 12.476562 24.6875 12.234375 24.226562 12.464844 23.828125 C 12.699219 23.429688 13.226562 23.410156 13.6875 23.390625 C 13.855469 23.382812 14.191406 23.371094 14.28125 23.320312 C 14.332031 23.230469 14.347656 22.890625 14.355469 22.726562 C 14.375 22.265625 14.398438 21.738281 14.800781 21.507812 C 15.199219 21.277344 15.660156 21.519531 16.066406 21.734375 C 16.214844 21.8125 16.515625 21.96875 16.625 21.96875 C 16.714844 21.917969 16.882812 21.652344 16.976562 21.503906 C 17.226562 21.109375 17.511719 20.660156 17.984375 20.660156 C 18.453125 20.660156 18.738281 21.109375 18.988281 21.503906 C 19.082031 21.652344 19.253906 21.917969 19.339844 21.96875 C 19.339844 21.96875 19.339844 21.96875 19.34375 21.96875 C 19.449219 21.96875 19.75 21.8125 19.898438 21.734375 C 20.304688 21.519531 20.769531 21.277344 21.164062 21.507812 C 21.566406 21.738281 21.589844 22.265625 21.609375 22.726562 C 21.617188 22.890625 21.632812 23.230469 21.683594 23.320312 C 21.773438 23.371094 22.113281 23.382812 22.277344 23.390625 C 22.738281 23.410156 23.265625 23.429688 23.5 23.828125 C 23.730469 24.226562 23.488281 24.6875 23.277344 25.097656 C 23.199219 25.246094 23.039062 25.554688 23.042969 25.65625 C 23.09375 25.742188 23.363281 25.914062 23.507812 26.003906 C 23.90625 26.257812 24.355469 26.542969 24.355469 27.011719 C 24.355469 27.484375 23.90625 27.769531 23.507812 28.019531 C 23.363281 28.113281 23.09375 28.28125 23.042969 28.367188 C 23.039062 28.472656 23.199219 28.777344 23.277344 28.929688 C 23.488281 29.335938 23.730469 29.800781 23.5 30.195312 C 23.265625 30.597656 22.738281 30.617188 22.277344 30.632812 C 22.113281 30.640625 21.773438 30.652344 21.683594 30.707031 C 21.632812 30.792969 21.617188 31.132812 21.609375 31.296875 C 21.589844 31.761719 21.566406 32.289062 21.164062 32.519531 C 20.769531 32.746094 20.304688 32.503906 19.898438 32.289062 C 19.75 32.214844 19.449219 32.054688 19.34375 32.054688 C 19.339844 32.054688 19.339844 32.054688 19.339844 32.054688 C 19.253906 32.105469 19.082031 32.375 18.988281 32.519531 C 18.738281 32.917969 18.453125 33.367188 17.984375 33.367188 Z M 16.628906 31.28125 C 16.695312 31.28125 16.761719 31.289062 16.828125 31.308594 C 17.183594 31.402344 17.410156 31.757812 17.628906 32.105469 C 17.722656 32.25 17.886719 32.511719 17.984375 32.582031 C 18.078125 32.511719 18.246094 32.25 18.335938 32.105469 C 18.554688 31.757812 18.785156 31.402344 19.136719 31.308594 C 19.503906 31.210938 19.886719 31.410156 20.257812 31.605469 C 20.390625 31.675781 20.652344 31.8125 20.773438 31.832031 C 20.816406 31.71875 20.828125 31.417969 20.835938 31.261719 C 20.855469 30.847656 20.875 30.421875 21.136719 30.15625 C 21.402344 29.894531 21.832031 29.878906 22.246094 29.859375 C 22.398438 29.855469 22.699219 29.84375 22.816406 29.800781 C 22.796875 29.679688 22.660156 29.417969 22.589844 29.285156 C 22.398438 28.914062 22.199219 28.53125 22.296875 28.164062 C 22.390625 27.8125 22.75 27.585938 23.09375 27.367188 C 23.242188 27.273438 23.5 27.109375 23.570312 27.011719 C 23.5 26.914062 23.242188 26.75 23.09375 26.660156 C 22.75 26.441406 22.390625 26.214844 22.296875 25.859375 C 22.199219 25.496094 22.398438 25.113281 22.589844 24.742188 C 22.660156 24.609375 22.796875 24.347656 22.816406 24.226562 C 22.699219 24.179688 22.398438 24.167969 22.246094 24.164062 C 21.832031 24.148438 21.402344 24.132812 21.136719 23.867188 C 20.875 23.605469 20.855469 23.175781 20.835938 22.761719 C 20.828125 22.609375 20.816406 22.308594 20.773438 22.191406 C 20.652344 22.214844 20.390625 22.351562 20.257812 22.421875 C 19.886719 22.613281 19.503906 22.816406 19.136719 22.71875 C 18.785156 22.625 18.554688 22.265625 18.335938 21.917969 C 18.246094 21.773438 18.078125 21.515625 17.984375 21.445312 C 17.886719 21.515625 17.722656 21.773438 17.628906 21.917969 C 17.410156 22.265625 17.183594 22.625 16.828125 22.71875 C 16.460938 22.816406 16.078125 22.613281 15.707031 22.421875 C 15.574219 22.351562 15.316406 22.214844 15.191406 22.191406 C 15.148438 22.308594 15.136719 22.609375 15.128906 22.761719 C 15.109375 23.175781 15.09375 23.605469 14.828125 23.867188 C 14.5625 24.132812 14.132812 24.148438 13.71875 24.164062 C 13.566406 24.167969 13.265625 24.179688 13.148438 24.226562 C 13.171875 24.347656 13.304688 24.609375 13.375 24.742188 C 13.566406 25.113281 13.765625 25.496094 13.667969 25.859375 C 13.574219 26.214844 13.214844 26.441406 12.871094 26.660156 C 12.726562 26.75 12.464844 26.914062 12.394531 27.011719 C 12.464844 27.109375 12.726562 27.273438 12.871094 27.367188 C 13.214844 27.585938 13.574219 27.8125 13.667969 28.164062 C 13.765625 28.53125 13.566406 28.914062 13.375 29.285156 C 13.308594 29.417969 13.171875 29.679688 13.148438 29.800781 C 13.265625 29.84375 13.566406 29.855469 13.71875 29.859375 C 14.132812 29.878906 14.5625 29.894531 14.828125 30.15625 C 15.09375 30.421875 15.109375 30.847656 15.128906 31.261719 C 15.136719 31.417969 15.148438 31.71875 15.191406 31.832031 C 15.316406 31.8125 15.574219 31.675781 15.707031 31.605469 C 16.011719 31.445312 16.324219 31.28125 16.628906 31.28125 Z M 16.621094 32.050781 Z M 19.34375 32.050781 Z M 21.679688 30.710938 Z M 14.285156 30.710938 Z M 12.925781 28.375 Z M 23.039062 28.375 Z M 12.921875 28.359375 Z M 23.042969 28.359375 Z M 12.921875 25.664062 Z M 23.042969 25.664062 Z M 12.925781 25.652344 Z M 21.6875 23.324219 Z M 21.679688 23.316406 Z M 14.285156 23.316406 Z M 16.621094 21.972656 Z M 16.632812 21.96875 Z M 16.632812 21.96875 " fill-opacity="1" fill-rule="nonzero"/></svg>